<mxfile host="65bd71144e">
    <diagram id="cvXTFW_LKnAIveJ0arFu" name="Page-1">
        <mxGraphModel dx="642" dy="1715" grid="1" gridSize="10" guides="1" tooltips="1" connect="1" arrows="1" fold="1" page="1" pageScale="1" pageWidth="827" pageHeight="1169" math="0" shadow="0">
            <root>
                <mxCell id="0"/>
                <mxCell id="1" parent="0"/>
                <mxCell id="6" value="" style="edgeStyle=none;html=1;" edge="1" parent="1" source="2">
                    <mxGeometry relative="1" as="geometry">
                        <mxPoint x="200" y="160" as="targetPoint"/>
                    </mxGeometry>
                </mxCell>
                <mxCell id="2" value="lending UI" style="rounded=1;whiteSpace=wrap;html=1;fillColor=default;fontColor=#ffffff;strokeColor=default;gradientColor=none;strokeWidth=3;" vertex="1" parent="1">
                    <mxGeometry x="30" y="130" width="120" height="60" as="geometry"/>
                </mxCell>
                <mxCell id="7" value="" style="edgeStyle=none;html=1;" edge="1" parent="1" target="5">
                    <mxGeometry relative="1" as="geometry">
                        <mxPoint x="320" y="160" as="sourcePoint"/>
                    </mxGeometry>
                </mxCell>
                <mxCell id="5" value="courses" style="shape=cylinder3;whiteSpace=wrap;html=1;boundedLbl=1;backgroundOutline=1;size=15;strokeColor=default;strokeWidth=4;fillColor=default;gradientColor=none;" vertex="1" parent="1">
                    <mxGeometry x="380" y="120" width="60" height="80" as="geometry"/>
                </mxCell>
                <mxCell id="11" value="" style="edgeStyle=none;html=1;" edge="1" parent="1" source="8" target="10">
                    <mxGeometry relative="1" as="geometry"/>
                </mxCell>
                <mxCell id="18" style="edgeStyle=none;html=1;entryX=0;entryY=0.5;entryDx=0;entryDy=0;" edge="1" parent="1" source="8" target="17">
                    <mxGeometry relative="1" as="geometry"/>
                </mxCell>
                <mxCell id="8" value="learning UI" style="rounded=1;whiteSpace=wrap;html=1;strokeColor=default;strokeWidth=4;fillColor=default;gradientColor=none;" vertex="1" parent="1">
                    <mxGeometry x="30" y="240" width="120" height="60" as="geometry"/>
                </mxCell>
                <mxCell id="12" style="edgeStyle=none;html=1;" edge="1" parent="1" source="10" target="5">
                    <mxGeometry relative="1" as="geometry"/>
                </mxCell>
                <mxCell id="14" value="" style="edgeStyle=none;html=1;" edge="1" parent="1" source="10" target="13">
                    <mxGeometry relative="1" as="geometry"/>
                </mxCell>
                <mxCell id="10" value="learning platform" style="rounded=0;whiteSpace=wrap;html=1;strokeColor=default;strokeWidth=4;fillColor=default;gradientColor=none;" vertex="1" parent="1">
                    <mxGeometry x="200" y="240" width="120" height="60" as="geometry"/>
                </mxCell>
                <mxCell id="13" value="students" style="shape=cylinder3;whiteSpace=wrap;html=1;boundedLbl=1;backgroundOutline=1;size=15;strokeColor=default;strokeWidth=4;fillColor=default;gradientColor=none;" vertex="1" parent="1">
                    <mxGeometry x="384" y="230" width="60" height="80" as="geometry"/>
                </mxCell>
                <mxCell id="16" value="platform serivce" style="rounded=0;whiteSpace=wrap;html=1;strokeColor=default;strokeWidth=4;fillColor=default;gradientColor=none;" vertex="1" parent="1">
                    <mxGeometry x="200" y="130" width="120" height="60" as="geometry"/>
                </mxCell>
                <mxCell id="19" style="edgeStyle=none;html=1;" edge="1" parent="1" source="17" target="13">
                    <mxGeometry relative="1" as="geometry"/>
                </mxCell>
                <mxCell id="17" value="login\notification service" style="rounded=1;whiteSpace=wrap;html=1;strokeColor=default;strokeWidth=4;fillColor=default;gradientColor=none;" vertex="1" parent="1">
                    <mxGeometry x="200" y="330" width="120" height="60" as="geometry"/>
                </mxCell>
                <mxCell id="20" value="" style="endArrow=none;dashed=1;html=1;dashPattern=1 3;strokeWidth=2;exitX=0.858;exitY=1.042;exitDx=0;exitDy=0;exitPerimeter=0;entryX=0.075;entryY=-0.042;entryDx=0;entryDy=0;entryPerimeter=0;" edge="1" parent="1" source="2" target="17">
                    <mxGeometry width="50" height="50" relative="1" as="geometry">
                        <mxPoint x="310" y="300" as="sourcePoint"/>
                        <mxPoint x="360" y="250" as="targetPoint"/>
                    </mxGeometry>
                </mxCell>
                <mxCell id="21" value="1. первая страница - лендинг, где мы можем посмотреть на все курсы. выбрать нужный. купить его&lt;br&gt;2. вторая страница - это уже обучающая платформа. что люди умеют доступ к оплаченым курсам и перед тем, как им зайти на этот сервис, надо пройти регистрация/вход в систему" style="text;html=1;strokeColor=none;fillColor=none;align=center;verticalAlign=middle;whiteSpace=wrap;rounded=0;" vertex="1" parent="1">
                    <mxGeometry x="30" y="20" width="440" height="30" as="geometry"/>
                </mxCell>
            </root>
        </mxGraphModel>
    </diagram>
</mxfile>